<mxfile host="app.diagrams.net" modified="2024-04-30T13:32:50.914Z" agent="Mozilla/5.0 (Windows NT 10.0; Win64; x64) AppleWebKit/537.36 (KHTML, like Gecko) Chrome/124.0.0.0 Safari/537.36" etag="oo-nNWJuvPNHDHMY1v0d" version="24.3.1" type="device">
  <diagram name="Page-1" id="3hQMBpAT36Rt4Q42G3UE">
    <mxGraphModel dx="1395" dy="643" grid="1" gridSize="10" guides="1" tooltips="1" connect="1" arrows="1" fold="1" page="1" pageScale="1" pageWidth="850" pageHeight="1100" math="0" shadow="0">
      <root>
        <mxCell id="0" />
        <mxCell id="1" parent="0" />
        <mxCell id="TdxeByON2-lEFesZ9QSu-107" value="" style="rounded=1;whiteSpace=wrap;html=1;" vertex="1" parent="1">
          <mxGeometry x="206.25" y="620" width="170" height="320" as="geometry" />
        </mxCell>
        <mxCell id="TdxeByON2-lEFesZ9QSu-98" value="" style="rounded=1;whiteSpace=wrap;html=1;" vertex="1" parent="1">
          <mxGeometry x="560" y="120" width="230" height="520" as="geometry" />
        </mxCell>
        <mxCell id="TdxeByON2-lEFesZ9QSu-71" value="" style="rounded=1;whiteSpace=wrap;html=1;" vertex="1" parent="1">
          <mxGeometry x="190" y="50" width="200" height="520" as="geometry" />
        </mxCell>
        <mxCell id="TdxeByON2-lEFesZ9QSu-102" value="" style="edgeStyle=orthogonalEdgeStyle;rounded=0;orthogonalLoop=1;jettySize=auto;html=1;" edge="1" parent="1" source="MTbftBKivdv4GaUxaRbm-12" target="TdxeByON2-lEFesZ9QSu-100">
          <mxGeometry relative="1" as="geometry" />
        </mxCell>
        <mxCell id="MTbftBKivdv4GaUxaRbm-12" value="&lt;font style=&quot;font-size: 8px;&quot;&gt;&lt;b&gt;Guest User&lt;/b&gt;&lt;/font&gt;" style="shape=umlActor;verticalLabelPosition=bottom;verticalAlign=top;html=1;outlineConnect=0;" parent="1" vertex="1">
          <mxGeometry x="120" y="100" width="40" height="60" as="geometry" />
        </mxCell>
        <mxCell id="MTbftBKivdv4GaUxaRbm-13" value="&lt;font style=&quot;font-size: 8px;&quot;&gt;REGISTER&lt;/font&gt;&lt;div&gt;&lt;font style=&quot;font-size: 8px;&quot;&gt;/&amp;nbsp;&lt;/font&gt;&lt;/div&gt;&lt;div&gt;&lt;font style=&quot;font-size: 8px;&quot;&gt;LOGIN&lt;/font&gt;&lt;/div&gt;" style="ellipse;whiteSpace=wrap;html=1;" parent="1" vertex="1">
          <mxGeometry x="250" y="60" width="77.5" height="50" as="geometry" />
        </mxCell>
        <mxCell id="MTbftBKivdv4GaUxaRbm-23" value="&lt;b&gt;&lt;font style=&quot;font-size: 8px;&quot;&gt;Searchng and Browsing Properties&lt;/font&gt;&lt;/b&gt;" style="ellipse;whiteSpace=wrap;html=1;" parent="1" vertex="1">
          <mxGeometry x="255" y="140" width="70" height="50" as="geometry" />
        </mxCell>
        <mxCell id="MTbftBKivdv4GaUxaRbm-30" value="LOGOUT" style="ellipse;whiteSpace=wrap;html=1;" parent="1" vertex="1">
          <mxGeometry x="255" y="500" width="80" height="50" as="geometry" />
        </mxCell>
        <mxCell id="TdxeByON2-lEFesZ9QSu-94" style="edgeStyle=orthogonalEdgeStyle;rounded=0;orthogonalLoop=1;jettySize=auto;html=1;exitX=1;exitY=0;exitDx=0;exitDy=0;entryX=0;entryY=0.5;entryDx=0;entryDy=0;" edge="1" parent="1" source="TdxeByON2-lEFesZ9QSu-1" target="TdxeByON2-lEFesZ9QSu-49">
          <mxGeometry relative="1" as="geometry" />
        </mxCell>
        <mxCell id="TdxeByON2-lEFesZ9QSu-1" value="Manage Profile" style="ellipse;whiteSpace=wrap;html=1;" vertex="1" parent="1">
          <mxGeometry x="255" y="230" width="80" height="60" as="geometry" />
        </mxCell>
        <mxCell id="TdxeByON2-lEFesZ9QSu-95" style="edgeStyle=orthogonalEdgeStyle;rounded=0;orthogonalLoop=1;jettySize=auto;html=1;exitX=1;exitY=0.5;exitDx=0;exitDy=0;entryX=0;entryY=0.5;entryDx=0;entryDy=0;" edge="1" parent="1" source="TdxeByON2-lEFesZ9QSu-20" target="TdxeByON2-lEFesZ9QSu-51">
          <mxGeometry relative="1" as="geometry">
            <mxPoint x="470" y="334.8571428571428" as="targetPoint" />
          </mxGeometry>
        </mxCell>
        <mxCell id="TdxeByON2-lEFesZ9QSu-96" style="edgeStyle=orthogonalEdgeStyle;rounded=0;orthogonalLoop=1;jettySize=auto;html=1;exitX=1;exitY=0.5;exitDx=0;exitDy=0;" edge="1" parent="1" source="TdxeByON2-lEFesZ9QSu-20" target="TdxeByON2-lEFesZ9QSu-52">
          <mxGeometry relative="1" as="geometry" />
        </mxCell>
        <mxCell id="TdxeByON2-lEFesZ9QSu-97" style="edgeStyle=orthogonalEdgeStyle;rounded=0;orthogonalLoop=1;jettySize=auto;html=1;exitX=1;exitY=0.5;exitDx=0;exitDy=0;entryX=0;entryY=0.5;entryDx=0;entryDy=0;" edge="1" parent="1" source="TdxeByON2-lEFesZ9QSu-20" target="TdxeByON2-lEFesZ9QSu-50">
          <mxGeometry relative="1" as="geometry" />
        </mxCell>
        <mxCell id="TdxeByON2-lEFesZ9QSu-20" value="Manage&amp;nbsp;&lt;div&gt;Property&lt;/div&gt;" style="ellipse;whiteSpace=wrap;html=1;" vertex="1" parent="1">
          <mxGeometry x="255" y="310" width="75" height="50" as="geometry" />
        </mxCell>
        <mxCell id="TdxeByON2-lEFesZ9QSu-88" style="edgeStyle=orthogonalEdgeStyle;rounded=0;orthogonalLoop=1;jettySize=auto;html=1;exitX=1;exitY=0.5;exitDx=0;exitDy=0;entryX=0;entryY=0.5;entryDx=0;entryDy=0;" edge="1" parent="1" source="TdxeByON2-lEFesZ9QSu-23" target="TdxeByON2-lEFesZ9QSu-26">
          <mxGeometry relative="1" as="geometry" />
        </mxCell>
        <mxCell id="TdxeByON2-lEFesZ9QSu-90" style="edgeStyle=orthogonalEdgeStyle;rounded=0;orthogonalLoop=1;jettySize=auto;html=1;exitX=1;exitY=0.5;exitDx=0;exitDy=0;entryX=0;entryY=0.5;entryDx=0;entryDy=0;" edge="1" parent="1" source="TdxeByON2-lEFesZ9QSu-23" target="TdxeByON2-lEFesZ9QSu-28">
          <mxGeometry relative="1" as="geometry" />
        </mxCell>
        <mxCell id="TdxeByON2-lEFesZ9QSu-91" style="edgeStyle=orthogonalEdgeStyle;rounded=0;orthogonalLoop=1;jettySize=auto;html=1;exitX=1;exitY=0.5;exitDx=0;exitDy=0;entryX=0;entryY=0.5;entryDx=0;entryDy=0;" edge="1" parent="1" source="TdxeByON2-lEFesZ9QSu-23" target="TdxeByON2-lEFesZ9QSu-29">
          <mxGeometry relative="1" as="geometry" />
        </mxCell>
        <mxCell id="TdxeByON2-lEFesZ9QSu-92" style="edgeStyle=orthogonalEdgeStyle;rounded=0;orthogonalLoop=1;jettySize=auto;html=1;exitX=1;exitY=0.5;exitDx=0;exitDy=0;entryX=0;entryY=0.5;entryDx=0;entryDy=0;" edge="1" parent="1" source="TdxeByON2-lEFesZ9QSu-23" target="TdxeByON2-lEFesZ9QSu-30">
          <mxGeometry relative="1" as="geometry" />
        </mxCell>
        <mxCell id="TdxeByON2-lEFesZ9QSu-23" value="&lt;font style=&quot;font-size: 9px;&quot;&gt;Cart Functionality&lt;/font&gt;" style="ellipse;whiteSpace=wrap;html=1;" vertex="1" parent="1">
          <mxGeometry x="255" y="400" width="72.5" height="50" as="geometry" />
        </mxCell>
        <mxCell id="TdxeByON2-lEFesZ9QSu-26" value="&lt;span style=&quot;font-size: 8px;&quot;&gt;Add to Cart&lt;/span&gt;" style="ellipse;whiteSpace=wrap;html=1;" vertex="1" parent="1">
          <mxGeometry x="645" y="410" width="60" height="30" as="geometry" />
        </mxCell>
        <mxCell id="TdxeByON2-lEFesZ9QSu-28" value="&lt;span style=&quot;font-size: 8px;&quot;&gt;Remove from Cart&lt;/span&gt;" style="ellipse;whiteSpace=wrap;html=1;" vertex="1" parent="1">
          <mxGeometry x="645" y="460" width="60" height="30" as="geometry" />
        </mxCell>
        <mxCell id="TdxeByON2-lEFesZ9QSu-29" value="&lt;span style=&quot;font-size: 8px;&quot;&gt;Save for Later&lt;/span&gt;" style="ellipse;whiteSpace=wrap;html=1;" vertex="1" parent="1">
          <mxGeometry x="645" y="510" width="60" height="30" as="geometry" />
        </mxCell>
        <mxCell id="TdxeByON2-lEFesZ9QSu-30" value="&lt;span style=&quot;font-size: 8px;&quot;&gt;Proceed with Payment&lt;/span&gt;" style="ellipse;whiteSpace=wrap;html=1;" vertex="1" parent="1">
          <mxGeometry x="645" y="560" width="60" height="30" as="geometry" />
        </mxCell>
        <mxCell id="TdxeByON2-lEFesZ9QSu-49" value="&lt;span style=&quot;font-size: 8px;&quot;&gt;Edit Personal Details&lt;/span&gt;" style="ellipse;whiteSpace=wrap;html=1;" vertex="1" parent="1">
          <mxGeometry x="645" y="160" width="60" height="30" as="geometry" />
        </mxCell>
        <mxCell id="TdxeByON2-lEFesZ9QSu-50" value="&lt;span style=&quot;font-size: 8px;&quot;&gt;Add new Property&lt;/span&gt;" style="ellipse;whiteSpace=wrap;html=1;" vertex="1" parent="1">
          <mxGeometry x="645" y="245" width="60" height="30" as="geometry" />
        </mxCell>
        <mxCell id="TdxeByON2-lEFesZ9QSu-51" value="&lt;span style=&quot;font-size: 8px;&quot;&gt;Edit Existing Proprty&lt;/span&gt;" style="ellipse;whiteSpace=wrap;html=1;" vertex="1" parent="1">
          <mxGeometry x="645" y="295" width="60" height="30" as="geometry" />
        </mxCell>
        <mxCell id="TdxeByON2-lEFesZ9QSu-52" value="&lt;span style=&quot;font-size: 8px;&quot;&gt;View All Properities&lt;/span&gt;" style="ellipse;whiteSpace=wrap;html=1;" vertex="1" parent="1">
          <mxGeometry x="645" y="350" width="60" height="30" as="geometry" />
        </mxCell>
        <mxCell id="TdxeByON2-lEFesZ9QSu-75" style="edgeStyle=orthogonalEdgeStyle;rounded=0;orthogonalLoop=1;jettySize=auto;html=1;exitX=1;exitY=0.3333333333333333;exitDx=0;exitDy=0;exitPerimeter=0;" edge="1" parent="1" source="TdxeByON2-lEFesZ9QSu-57" target="TdxeByON2-lEFesZ9QSu-20">
          <mxGeometry relative="1" as="geometry" />
        </mxCell>
        <mxCell id="TdxeByON2-lEFesZ9QSu-76" style="edgeStyle=orthogonalEdgeStyle;rounded=0;orthogonalLoop=1;jettySize=auto;html=1;exitX=1;exitY=0.3333333333333333;exitDx=0;exitDy=0;exitPerimeter=0;" edge="1" parent="1" source="TdxeByON2-lEFesZ9QSu-57" target="TdxeByON2-lEFesZ9QSu-23">
          <mxGeometry relative="1" as="geometry" />
        </mxCell>
        <mxCell id="TdxeByON2-lEFesZ9QSu-77" style="edgeStyle=orthogonalEdgeStyle;rounded=0;orthogonalLoop=1;jettySize=auto;html=1;exitX=1;exitY=0.3333333333333333;exitDx=0;exitDy=0;exitPerimeter=0;entryX=0;entryY=0.5;entryDx=0;entryDy=0;" edge="1" parent="1" source="TdxeByON2-lEFesZ9QSu-57" target="TdxeByON2-lEFesZ9QSu-1">
          <mxGeometry relative="1" as="geometry" />
        </mxCell>
        <mxCell id="TdxeByON2-lEFesZ9QSu-78" style="edgeStyle=orthogonalEdgeStyle;rounded=0;orthogonalLoop=1;jettySize=auto;html=1;exitX=1;exitY=0.3333333333333333;exitDx=0;exitDy=0;exitPerimeter=0;entryX=0;entryY=0.5;entryDx=0;entryDy=0;" edge="1" parent="1" source="TdxeByON2-lEFesZ9QSu-57" target="MTbftBKivdv4GaUxaRbm-30">
          <mxGeometry relative="1" as="geometry" />
        </mxCell>
        <mxCell id="TdxeByON2-lEFesZ9QSu-57" value="&lt;font style=&quot;font-size: 8px;&quot;&gt;&lt;b&gt;Registered&amp;nbsp;&lt;/b&gt;&lt;/font&gt;&lt;div&gt;&lt;font style=&quot;font-size: 8px;&quot;&gt;&lt;b&gt;User&lt;/b&gt;&lt;/font&gt;&lt;/div&gt;" style="shape=umlActor;verticalLabelPosition=bottom;verticalAlign=top;html=1;outlineConnect=0;" vertex="1" parent="1">
          <mxGeometry x="120" y="360" width="40" height="60" as="geometry" />
        </mxCell>
        <mxCell id="TdxeByON2-lEFesZ9QSu-68" value="" style="endArrow=classic;html=1;rounded=0;entryX=0;entryY=0.5;entryDx=0;entryDy=0;" edge="1" parent="1" target="MTbftBKivdv4GaUxaRbm-13">
          <mxGeometry width="50" height="50" relative="1" as="geometry">
            <mxPoint x="190" y="120" as="sourcePoint" />
            <mxPoint x="540" y="250" as="targetPoint" />
          </mxGeometry>
        </mxCell>
        <mxCell id="TdxeByON2-lEFesZ9QSu-69" value="" style="endArrow=classic;html=1;rounded=0;entryX=0;entryY=0.5;entryDx=0;entryDy=0;" edge="1" parent="1" target="MTbftBKivdv4GaUxaRbm-23">
          <mxGeometry width="50" height="50" relative="1" as="geometry">
            <mxPoint x="190" y="120" as="sourcePoint" />
            <mxPoint x="540" y="250" as="targetPoint" />
          </mxGeometry>
        </mxCell>
        <mxCell id="TdxeByON2-lEFesZ9QSu-70" value="" style="endArrow=none;html=1;rounded=0;exitX=1;exitY=0.3333333333333333;exitDx=0;exitDy=0;exitPerimeter=0;" edge="1" parent="1" source="MTbftBKivdv4GaUxaRbm-12">
          <mxGeometry width="50" height="50" relative="1" as="geometry">
            <mxPoint x="490" y="300" as="sourcePoint" />
            <mxPoint x="190" y="120" as="targetPoint" />
          </mxGeometry>
        </mxCell>
        <mxCell id="TdxeByON2-lEFesZ9QSu-79" value="Core Site Functionality" style="text;html=1;align=center;verticalAlign=middle;resizable=0;points=[];autosize=1;strokeColor=none;fillColor=none;" vertex="1" parent="1">
          <mxGeometry x="215" y="20" width="140" height="30" as="geometry" />
        </mxCell>
        <mxCell id="TdxeByON2-lEFesZ9QSu-99" value="Internal SIte Functionality/Services" style="text;html=1;align=center;verticalAlign=middle;resizable=0;points=[];autosize=1;strokeColor=none;fillColor=none;" vertex="1" parent="1">
          <mxGeometry x="560" y="100" width="210" height="30" as="geometry" />
        </mxCell>
        <mxCell id="TdxeByON2-lEFesZ9QSu-100" value="&lt;font style=&quot;font-size: 8px;&quot;&gt;User&lt;/font&gt;&lt;div&gt;&lt;font style=&quot;font-size: 8px;&quot;&gt;Authentication&lt;/font&gt;&lt;/div&gt;&lt;div&gt;&lt;font style=&quot;font-size: 8px;&quot;&gt;(Login)&lt;/font&gt;&lt;/div&gt;" style="rhombus;whiteSpace=wrap;html=1;align=center;" vertex="1" parent="1">
          <mxGeometry x="105" y="225" width="70" height="85" as="geometry" />
        </mxCell>
        <mxCell id="TdxeByON2-lEFesZ9QSu-101" style="edgeStyle=orthogonalEdgeStyle;rounded=0;orthogonalLoop=1;jettySize=auto;html=1;exitX=0.5;exitY=1;exitDx=0;exitDy=0;entryX=0.5;entryY=0;entryDx=0;entryDy=0;entryPerimeter=0;" edge="1" parent="1" source="TdxeByON2-lEFesZ9QSu-100" target="TdxeByON2-lEFesZ9QSu-57">
          <mxGeometry relative="1" as="geometry" />
        </mxCell>
        <mxCell id="TdxeByON2-lEFesZ9QSu-105" value="" style="edgeStyle=orthogonalEdgeStyle;rounded=0;orthogonalLoop=1;jettySize=auto;html=1;entryX=0;entryY=0.3333333333333333;entryDx=0;entryDy=0;entryPerimeter=0;" edge="1" parent="1" source="TdxeByON2-lEFesZ9QSu-103" target="TdxeByON2-lEFesZ9QSu-57">
          <mxGeometry relative="1" as="geometry">
            <mxPoint x="55" y="380" as="targetPoint" />
          </mxGeometry>
        </mxCell>
        <mxCell id="TdxeByON2-lEFesZ9QSu-115" value="" style="edgeStyle=orthogonalEdgeStyle;rounded=0;orthogonalLoop=1;jettySize=auto;html=1;" edge="1" parent="1" source="TdxeByON2-lEFesZ9QSu-103">
          <mxGeometry relative="1" as="geometry">
            <mxPoint x="170" y="780" as="targetPoint" />
            <Array as="points">
              <mxPoint x="40" y="780" />
            </Array>
          </mxGeometry>
        </mxCell>
        <mxCell id="TdxeByON2-lEFesZ9QSu-103" value="&lt;font style=&quot;font-size: 8px;&quot;&gt;SuperUser&lt;/font&gt;" style="shape=umlActor;verticalLabelPosition=bottom;verticalAlign=top;html=1;outlineConnect=0;" vertex="1" parent="1">
          <mxGeometry x="30" y="275" width="30" height="60" as="geometry" />
        </mxCell>
        <mxCell id="TdxeByON2-lEFesZ9QSu-106" style="edgeStyle=orthogonalEdgeStyle;rounded=0;orthogonalLoop=1;jettySize=auto;html=1;exitX=1;exitY=0.3333333333333333;exitDx=0;exitDy=0;exitPerimeter=0;entryX=0;entryY=0.723;entryDx=0;entryDy=0;entryPerimeter=0;" edge="1" parent="1" source="TdxeByON2-lEFesZ9QSu-57" target="MTbftBKivdv4GaUxaRbm-23">
          <mxGeometry relative="1" as="geometry" />
        </mxCell>
        <mxCell id="TdxeByON2-lEFesZ9QSu-108" value="Super User Functionalities" style="text;html=1;align=center;verticalAlign=middle;resizable=0;points=[];autosize=1;strokeColor=none;fillColor=none;" vertex="1" parent="1">
          <mxGeometry x="215" y="590" width="160" height="30" as="geometry" />
        </mxCell>
        <mxCell id="TdxeByON2-lEFesZ9QSu-110" value="&lt;font style=&quot;font-size: 9px;&quot;&gt;Admin&amp;nbsp;&lt;/font&gt;&lt;div&gt;&lt;font style=&quot;font-size: 9px;&quot;&gt;Dashboard&lt;/font&gt;&lt;/div&gt;" style="ellipse;whiteSpace=wrap;html=1;" vertex="1" parent="1">
          <mxGeometry x="251.25" y="640" width="80" height="50" as="geometry" />
        </mxCell>
        <mxCell id="TdxeByON2-lEFesZ9QSu-111" value="&lt;font style=&quot;font-size: 9px;&quot;&gt;Edit User Details&lt;/font&gt;" style="ellipse;whiteSpace=wrap;html=1;" vertex="1" parent="1">
          <mxGeometry x="252.5" y="710" width="80" height="50" as="geometry" />
        </mxCell>
        <mxCell id="TdxeByON2-lEFesZ9QSu-112" value="&lt;span style=&quot;font-size: 9px;&quot;&gt;Edit Property Details&lt;/span&gt;" style="ellipse;whiteSpace=wrap;html=1;" vertex="1" parent="1">
          <mxGeometry x="252.5" y="780" width="80" height="50" as="geometry" />
        </mxCell>
        <mxCell id="TdxeByON2-lEFesZ9QSu-113" value="LOGOUT" style="ellipse;whiteSpace=wrap;html=1;" vertex="1" parent="1">
          <mxGeometry x="251.25" y="850" width="80" height="50" as="geometry" />
        </mxCell>
        <mxCell id="TdxeByON2-lEFesZ9QSu-116" value="" style="endArrow=classic;html=1;rounded=0;entryX=0;entryY=0.5;entryDx=0;entryDy=0;" edge="1" parent="1" target="TdxeByON2-lEFesZ9QSu-110">
          <mxGeometry width="50" height="50" relative="1" as="geometry">
            <mxPoint x="170" y="780" as="sourcePoint" />
            <mxPoint x="530" y="610" as="targetPoint" />
          </mxGeometry>
        </mxCell>
        <mxCell id="TdxeByON2-lEFesZ9QSu-117" value="" style="endArrow=classic;html=1;rounded=0;entryX=0;entryY=0.5;entryDx=0;entryDy=0;" edge="1" parent="1" target="TdxeByON2-lEFesZ9QSu-113">
          <mxGeometry width="50" height="50" relative="1" as="geometry">
            <mxPoint x="170" y="780" as="sourcePoint" />
            <mxPoint x="261" y="675" as="targetPoint" />
          </mxGeometry>
        </mxCell>
        <mxCell id="TdxeByON2-lEFesZ9QSu-118" value="" style="endArrow=classic;html=1;rounded=0;entryX=0;entryY=0.5;entryDx=0;entryDy=0;" edge="1" parent="1" target="TdxeByON2-lEFesZ9QSu-111">
          <mxGeometry width="50" height="50" relative="1" as="geometry">
            <mxPoint x="170" y="780" as="sourcePoint" />
            <mxPoint x="271" y="685" as="targetPoint" />
          </mxGeometry>
        </mxCell>
        <mxCell id="TdxeByON2-lEFesZ9QSu-119" value="" style="endArrow=classic;html=1;rounded=0;" edge="1" parent="1" target="TdxeByON2-lEFesZ9QSu-112">
          <mxGeometry width="50" height="50" relative="1" as="geometry">
            <mxPoint x="170" y="780" as="sourcePoint" />
            <mxPoint x="281" y="695" as="targetPoint" />
          </mxGeometry>
        </mxCell>
      </root>
    </mxGraphModel>
  </diagram>
</mxfile>
